# AST/ASF file generated using VICON BodyLanguage
# -----------------------------------------------
:version 1.10
:name VICON
:units
  mass 1.0
  length 0.1
  angle deg
:documentation
   .ast/.asf automatically generated from VICON data using
   VICON BodyBuilder and BodyLanguage model FULLBODY5.MOD
:root
   order TX TY TZ RZ RY RX
   axis XYZ
   position 0 0 0  
   orientation 0 -0 0 
:bonedata
  begin
     id 1 
     name lhipjoint
     direction 0.969109 -0.218487 0.11442 
     length 0.544217 
     axis 0 -0 0  XYZ
  end
  begin
     id 2 
     name lfemur
     direction 0.173648 -0.984808 0  
     length 1.81499  
     axis 0 -0 10  XYZ
    dof rx ry rz
    limits (-180.0 180.0)
           (-180.0 180.0)
           (-180.0 180.0)
  end
  begin
     id 3 
     name ltibia
     direction 0.173515 -0.984831 0   
     length 1.55296   
     axis 0 -0 10   XYZ
    dof rx ry rz
    limits (-180.0 180.0)
           (-180.0 180.0)
           (-180.0 180.0)
  end
  begin
     id 4 
     name lfoot
     direction 7.36097e-012 -0.333012 0.942922   
     length 0.509062   
     axis -90 -1.73656e-015 10   XYZ
    dof rx ry rz
    limits (-180.0 180.0)
           (-180.0 180.0)
           (-180.0 180.0)
  end
  begin
     id 5 
     name ltoes
     direction 7.7847e-012 -4.42403e-011 1   
     length 0.249732   
     axis -90 -1.73656e-015 10   XYZ
    dof rx ry rz
    limits (-180.0 180.0)
           (-180.0 180.0)
           (-180.0 180.0)
  end
  begin
     id 6 
     name rhipjoint
     direction -0.966745 -0.226554 0.118645   
     length 0.524838  
     axis 0 -0 0  XYZ 
  end
  begin
     id 7 
     name rfemur
     direction -0.173648 -0.984808 0   
     length 1.84625   
     axis 0 -0 -10   XYZ
    dof rx ry rz
    limits (-180.0 180.0)
           (-180.0 180.0)
           (-180.0 180.0)
  end
  begin
     id 8 
     name rtibia
     direction -0.173714 -0.984796 0   
     length 1.577   
     axis 0 -0 -10   XYZ
    dof rx ry rz
    limits (-180.0 180.0)
           (-180.0 180.0)
           (-180.0 180.0)
 end
 begin
     id 9 
     name rfoot
     direction -0.0183819 -0.0406144 0.999006   
     length 0.490111  
     axis -90 1.73656e-015 -10   XYZ
    dof rx ry rz
    limits (-180.0 180.0)
           (-180.0 180.0)
           (-180.0 180.0)
  end
  begin
     id 10 
     name rtoes
     direction -7.79087e-012 -4.42375e-011 1   
     length 0.245053   
     axis -90 1.73656e-015 -10   XYZ
    dof rx ry rz
    limits (-180.0 180.0)
           (-180.0 180.0)
           (-180.0 180.0)
  end
  begin
     id 11 
     name lowerback
     direction -0.0664844 0.980601 0.184393   
     length 0.458979   
     axis 0 -0 0   XYZ
    dof rx ry rz
    limits (-180.0 180.0)
           (-180.0 180.0)
           (-180.0 180.0)
  end
  begin
     id 12 
     name upperback
     direction 0.0135995 0.999573 0.02588   
     length 0.463983   
     axis 0 -0 0   XYZ
    dof rx ry rz
    limits (-180.0 180.0)
           (-180.0 180.0)
           (-180.0 180.0)
  end
  begin
     id 13 
     name thorax
     direction 0.0468402 0.997311 -0.0563691   
     length 0.482746   
     axis 0 -0 0   XYZ
    dof rx ry rz
    limits (-180.0 180.0)
           (-180.0 180.0)
           (-180.0 180.0)
  end
  begin
     id 14 
     name lowerneck
     direction -0.00174311 0.988586 -0.150647   
     length 0.364383   
     axis 0 -0 0   XYZ
    dof rx ry rz
    limits (-180.0 180.0)
           (-180.0 180.0)
           (-180.0 180.0)
  end
  begin
     id 15 
     name upperneck
     direction -0.02653 0.999379 -0.0231908   
     length 0.361006   
     axis 0 -0 0   XYZ
    dof rx ry rz
    limits (-180.0 180.0)
           (-180.0 180.0)
           (-180.0 180.0)
  end
  begin
     id 16
     name head
     direction -0.00819207 0.999941 0.00714285  
     length 0.378714  
     axis 0 -0 0   XYZ
    dof rx ry rz
    limits (-180.0 180.0)
           (-180.0 180.0)
           (-180.0 180.0)
  end
  begin
     id 17 
     name lshoulderjoint
     direction 0.981627 -0.190809 0  
     length 0.612969  
     axis 0 -0 -11   XYZ
    dof rx ry rz
    limits (-180.0 180.0)
           (-180.0 180.0)
           (-180.0 180.0)
  end
  begin
     id 18 
     name lhumerus
     direction 0.48481 -0.87462 -9.72962e-027   
     length 1.19637   
     axis -180 5.14477e-009 -151   XYZ
    dof rx ry rz
    limits (-180.0 180.0)
           (-180.0 180.0)
           (-180.0 180.0)
  end
  begin
     id 19
     name lradius
     direction 0.48481 -0.87462 -2.35761e-026   
     length 0.637735   
     axis -180 5.14477e-009 -151   XYZ
    dof rx ry rz
    limits (-180.0 180.0)
           (-180.0 180.0)
           (-180.0 180.0)
  end
  begin
     id 20
     name lwrist
     direction 0.48481 -0.87462 -5.51856e-026   
     length 0.318868   
     axis -180 5.14477e-009 -151   XYZ
    dof rx ry rz
    limits (-180.0 180.0)
           (-180.0 180.0)
           (-180.0 180.0)
  end
  begin
     id 21 
     name lhand
     direction 0.477747 -0.861928 -0.169816   
     length 0.29526   
     axis -180 5.14477e-009 -151   XYZ
    dof rx ry rz
    limits (-180.0 180.0)
           (-180.0 180.0)
           (-180.0 180.0)
  end
  begin
     id 22 
     name rshoulderjoint
     direction -0.981627 -0.190809 0   
     length 0.572347  
     axis 0 -0 11   XYZ 
    dof rx ry rz
    limits (-180.0 180.0)
           (-180.0 180.0)
           (-180.0 180.0)
  end
  begin
     id 23 
     name rhumerus
     direction -0.48481 -0.87462 1.64836e-026  
     length 1.28846   
     axis 180 5.14477e-009 151   XYZ
    dof rx ry rz
    limits (-180.0 180.0)
           (-180.0 180.0)
           (-180.0 180.0)
  end
  begin
     id 24 
     name rradius
     direction -0.48481 -0.87462 2.86827e-026   
     length 0.62107   
     axis 180 5.14477e-009 151   XYZ
    dof rx ry rz
    limits (-180.0 180.0)
           (-180.0 180.0)
           (-180.0 180.0)
  end
  begin
     id 25 
     name rwrist
     direction -0.48481 -0.87462 5.20942e-026   
     length 0.310535   
     axis 180 5.14477e-009 151   XYZ
    dof rx ry rz
    limits (-180.0 180.0)
           (-180.0 180.0)
           (-180.0 180.0)
  end
  begin
     id 26
     name rhand
     direction -0.477664 -0.861515 -0.172133   
     length 0.291321   
     axis 180 5.14477e-009 151   XYZ
    dof rx ry rz
    limits (-180.0 180.0)
           (-180.0 180.0)
           (-180.0 180.0)
  end
:hierarchy
  begin
    root lhipjoint rhipjoint lowerback 
    lhipjoint lfemur
    lfemur ltibia
    ltibia lfoot
    lfoot ltoes
    rhipjoint rfemur
    rfemur rtibia
    rtibia rfoot
    rfoot rtoes
    lowerback upperback
    upperback thorax
    thorax lowerneck lshoulderjoint rshoulderjoint
    lowerneck upperneck
    upperneck head
    lshoulderjoint lhumerus
    lhumerus lradius
    lradius lwrist
    lwrist lhand
    rshoulderjoint rhumerus
    rhumerus rradius
    rradius rwrist
    rwrist rhand
  end

:FULLY-SPECIFIED
:DEGREES
2814
root 5.74706 3.48771 -0.509922 434.722 -69.6332 69.0904
lowerback -18.8675 -4.14615 -12.206
upperback -4.37822 -3.39078 0.677249
thorax 6.47233 -1.95704 6.82898
lowerneck 12.962 -2.58202 1.78523
upperneck 4.78515 -3.4384 -4.90692
head -0.803574 -1.71413 -1.69818
rshoulderjoint -2.22203 6.33088 -30.3857
rhumerus 347.891 -20.1934 -410.459
rradius 22.7268 4.77083e-015 -7.39479e-014
rwrist 4.85104e-013 8.10051 -2.05607e-013
rhand 9.26141 -7.06259 30.498
lshoulderjoint -1.74562 -5.34422 29.1188
lhumerus 364.57 -5.86669 416.196
lradius 24.3144 2.8625e-014 -1.07344e-014
lwrist 3.39937e-013 -10.7614 2.14484e-014
lhand 9.79232 8.90043 -34.1843
rfemur -43.4406 7.35042 -2.74828
rtibia -5.725e-014 -3.33958e-014 2.22639e-014
rfoot -181.448 -61.8383 159.523
rtoes -5.725e-014 9.54166e-015 1.43125e-013
lfemur -1.36023 -19.2649 -21.1958
ltibia 10.2538 -9.54166e-015 1.43125e-014
lfoot -19.4779 5.32323 9.85874
ltoes 1.33583e-013 -9.35282e-014 -4.32357e-014
2815
root 5.69008 3.48261 -0.513456 433.778 -69.3068 68.4183
lowerback -19.4066 -4.25858 -11.9165
upperback -4.45762 -3.53986 0.778398
thorax 6.69492 -2.03646 6.71766
lowerneck 12.9942 -2.60495 1.7924
upperneck 4.81956 -3.46834 -4.9138
head -0.799174 -1.72969 -1.70004
rshoulderjoint -2.16516 6.19338 -30.3126
rhumerus 347.757 -20.5286 -410.24
rradius 22.4477 2.03555e-013 -1.09729e-013
rwrist 1.73621e-013 8.41948 -3.87432e-013
rhand 9.49839 -7.23567 30.614
lshoulderjoint -1.76394 -5.39585 29.1333
lhumerus 364.326 -5.69457 416.348
lradius 23.6899 1.86062e-013 -1.02573e-013
lwrist -2.26894e-014 -11.1143 -3.39126e-013
lhand 10.028 9.21941 -34.19
rfemur -42.963 7.50195 -2.44204
rtibia 2.54444e-014 -4.13472e-014 1.27222e-014
rfoot -184.662 -61.186 162.618
rtoes -3.26007e-014 -6.75868e-014 -6.71892e-014
lfemur -1.23577 -19.5607 -20.9363
ltibia 11.3487 4.92986e-014 2.94201e-014
lfoot -19.6631 5.56315 9.91617
ltoes 6.67916e-014 -1.94163e-013 3.26007e-014
2816
root 5.6321 3.47946 -0.517653 433.341 -68.9321 68.2301
lowerback -20.0454 -4.37938 -11.6918
upperback -4.63837 -3.69127 0.891067
thorax 6.85906 -2.11343 6.65236
lowerneck 13.1967 -2.58126 1.79256
upperneck 4.89311 -3.44097 -4.95747
head -0.809663 -1.71699 -1.71428
rshoulderjoint -2.31253 6.61327 -30.3232
rhumerus 347.284 -21.273 -410.012
rradius 22.1091 2.25819e-013 -1.05753e-013
rwrist 7.59684e-013 8.86425 -4.79631e-013
rhand 9.73654 -7.67539 30.8317
lshoulderjoint -1.75938 -5.37543 29.1535
lhumerus 363.911 -5.56231 416.507
lradius 23.0283 2.44903e-013 -1.66979e-014
lwrist 4.54052e-013 -11.2823 -1.38648e-013
lhand 10.2777 9.49144 -34.1728
rfemur -42.6995 7.78766 -2.18224
rtibia 3.18055e-014 -1.59028e-014 1.59028e-015
rfoot -187.899 -60.6223 165.567
rtoes -1.82882e-014 -6.63941e-014 -6.12257e-014
lfemur -1.09993 -19.7252 -20.6701
ltibia 12.1298 1.74931e-014 -1.59028e-015
lfoot -19.444 5.69283 10.0279
ltoes 4.92986e-014 -3.30976e-014 3.12092e-014
2817
root 5.57275 3.4784 -0.52102 433.316 -68.5001 68.4359
lowerback -20.8372 -4.45917 -11.389
upperback -4.89418 -3.79597 0.942338
thorax 6.99926 -2.16445 6.4818
lowerneck 13.557 -2.58053 1.93354
upperneck 5.01806 -3.42689 -5.0785
head -0.835844 -1.70838 -1.77702
rshoulderjoint -2.30062 6.65275 -30.1255
rhumerus 346.909 -21.5096 -409.694
rradius 21.7132 2.16278e-013 2.39337e-013
rwrist -6.99293e-013 9.25981 3.83483e-013
rhand 9.84147 -8.13629 31.1364
lshoulderjoint -1.74954 -5.34049 29.1686
lhumerus 363.335 -5.07085 416.664
lradius 22.3285 2.00375e-013 1.02175e-013
lwrist -1.08804e-012 -11.6876 -1.86348e-013
lhand 10.5674 9.75499 -34.0187
rfemur -44.6854 8.17931 -2.04323
rtibia 4.58395 6.36111e-015 -1.59028e-014
rfoot -187.464 -59.2543 165.218
rtoes 6.36111e-014 5.46658e-014 -9.78021e-014
lfemur -0.964872 -19.7833 -20.3932
ltibia 12.7059 -6.36111e-015 -3.49861e-014
lfoot -19.0346 6.15904 10.0541
ltoes 9.85972e-014 1.44715e-013 -6.75868e-015
2818
root 5.51234 3.47978 -0.524448 433.746 -68.1252 69.2005
lowerback -21.7042 -4.44581 -10.9351
upperback -5.14064 -3.80905 0.996715
thorax 7.15999 -2.17077 6.25164
lowerneck 13.6995 -2.56122 2.08132
upperneck 5.3853 -3.38423 -5.21459
head -0.745617 -1.69269 -1.84991
rshoulderjoint -2.2638 6.61674 -29.9357
rhumerus 346.602 -22.082 -409.383
rradius 21.3096 -3.06924e-013 -5.24792e-014
rwrist -1.43484e-013 9.45504 1.4832e-013
rhand 10.1656 -8.12162 31.3274
lshoulderjoint -1.71644 -5.23303 29.1882
lhumerus 362.741 -4.71659 416.786
lradius 21.64 -2.68757e-013 6.75868e-015
lwrist 5.3284e-013 -11.7837 3.20232e-013
lhand 11.007 9.88426 -33.8394
rfemur -46.3277 8.78886 -1.85013
rtibia 8.41804 5.08889e-014 -1.35174e-014
rfoot -187.675 -57.8287 165.675
rtoes 1.13705e-013 3.18652e-013 -1.22849e-013
lfemur -0.764604 -19.6236 -20.0279
ltibia 13.0307 -3.02153e-014 -3.33958e-014
lfoot -18.2509 6.67075 10.0978
ltoes -8.5875e-014 2.17272e-013 1.22253e-014
2819
root 5.45245 3.48336 -0.527345 434.502 -67.7292 70.272
lowerback -22.5906 -4.39814 -10.5062
upperback -5.38932 -3.78362 1.10565
thorax 7.32215 -2.16014 6.10794
lowerneck 13.5908 -2.49681 1.98388
upperneck 5.94826 -3.31439 -5.26839
head -0.540827 -1.67603 -1.85635
rshoulderjoint -2.21619 6.49457 -29.8878
rhumerus 346.349 -22.4299 -409.145
rradius 20.9195 -2.22639e-013 -4.69132e-014
rwrist -2.53348e-013 9.77038 1.11344e-013
rhand 10.2599 -8.40973 31.5861
lshoulderjoint -1.64645 -5.05363 29.0719
lhumerus 362.231 -4.37254 416.885
lradius 20.9573 -1.89243e-013 -3.37934e-014
lwrist -1.39657e-013 -11.6834 4.36429e-014
lhand 11.5949 9.85814 -33.592
rfemur -47.3561 9.45806 -1.74606
rtibia 10.9589 0 -4.77083e-015
rfoot -188.867 -58.0033 167.518
rtoes 5.64548e-014 5.05907e-014 -1.82882e-014
lfemur -0.599005 -19.3586 -19.6752
ltibia 13.1857 -1.11319e-014 -4.77083e-015
lfoot -17.1757 7.25853 10.1618
ltoes -1.59028e-014 2.84262e-014 -4.07509e-014
2820
root 5.39238 3.48885 -0.529489 435.125 -67.4487 71.4333
lowerback -23.375 -4.28826 -9.78361
upperback -5.64315 -3.76925 1.24003
thorax 7.41263 -2.14738 5.82578
lowerneck 13.6722 -2.43008 2.01189
upperneck 6.37066 -3.2265 -5.36342
head -0.417038 -1.64346 -1.89786
rshoulderjoint -2.21243 6.49807 -29.8487
rhumerus 346.006 -22.8329 -408.915
rradius 20.5789 1.145e-013 -1.7175e-013
rwrist -3.23e-014 10.0382 -4.05365e-013
rhand 10.2852 -8.71822 31.7881
lshoulderjoint -1.59677 -4.90381 29.0612
lhumerus 361.269 -3.5079 417.009
lradius 20.2862 2.22639e-014 -1.86858e-014
lwrist 3.46052e-013 -13.0324 3.37686e-014
lhand 11.8444 11.0207 -33.282
rfemur -47.9396 10.1987 -1.38731
rtibia 12.9296 3.18055e-015 -8.74653e-015
rfoot -190.626 -59.8926 170.245
rtoes 6.2816e-014 3.30976e-014 -6.36111e-014
lfemur -0.426986 -18.9993 -19.1372
ltibia 13.4553 -2.06736e-014 1.59028e-015
lfoot -15.9418 8.02557 10.1456
ltoes -6.99722e-014 4.79071e-014 -1.4561e-014
2821
root 5.3326 3.49606 -0.53195 436.03 -67.4574 72.6579
lowerback -23.8816 -4.14986 -9.29129
upperback -5.82694 -3.68842 1.32331
thorax 7.43359 -2.10384 5.64836
lowerneck 13.7978 -2.35463 2.03195
upperneck 6.70875 -3.12889 -5.46616
head -0.327433 -1.60394 -1.94049
rshoulderjoint -2.2176 6.50424 -29.873
rhumerus 345.684 -23.4494 -408.679
rradius 20.3247 -8.5875e-014 1.79701e-013
rwrist -5.97532e-013 10.0287 4.9902e-013
rhand 10.4515 -8.64806 31.8068
lshoulderjoint -1.56844 -4.81687 29.0601
lhumerus 360.502 -2.62712 417.151
lradius 19.6479 -2.38542e-014 5.84427e-014
lwrist -7.08576e-013 -13.084 -3.12247e-014
lhand 12.4379 11.0484 -32.9191
rfemur -48.0293 11.1112 -1.18916
rtibia 14.4316 3.18055e-015 -9.54166e-015
rfoot -192.789 -62.1553 172.923
rtoes 6.59965e-014 7.57867e-014 -8.29926e-014
lfemur -0.127254 -18.4776 -18.8538
ltibia 13.9862 1.59028e-015 -1.27222e-014
lfoot -14.5323 9.25047 9.92028
ltoes 9.54166e-015 6.44062e-014 1.00883e-014
